<svg width="2400" height="1600" viewBox="0 0 2400 1600" fill="none" xmlns="http://www.w3.org/2000/svg">
  <rect width="2400" height="1600" fill="#EAF1F7"/>
  <rect x="28" y="28" width="2344" height="1544" rx="36" fill="#F7FBFF" stroke="#BFD1E0" stroke-width="4"/>
  <rect x="60" y="56" width="2280" height="92" rx="28" fill="#0F172A"/>
  <text x="110" y="112" fill="#F8FAFC" font-family="Arial, sans-serif" font-size="44" font-weight="700">Luxury 6-Floor Hotel Architectural Floor Plan Sheet</text>
  <text x="1760" y="112" fill="#93C5FD" font-family="Arial, sans-serif" font-size="24" font-weight="700">Blueprint-style presentation sheet</text>

  <g opacity="0.25" stroke="#C7D5E3" stroke-width="2">
    <path d="M60 184H2340"/>
    <path d="M60 364H2340"/>
    <path d="M60 544H2340"/>
    <path d="M60 724H2340"/>
    <path d="M60 904H2340"/>
    <path d="M60 1084H2340"/>
    <path d="M60 1264H2340"/>
    <path d="M60 1444H2340"/>
    <path d="M412 184V1520"/>
    <path d="M804 184V1520"/>
    <path d="M1196 184V1520"/>
    <path d="M1588 184V1520"/>
    <path d="M1980 184V1520"/>
  </g>

  <g>
    <rect x="80" y="180" width="720" height="420" rx="28" fill="#FFFDF8" stroke="#D5E0EA" stroke-width="4"/>
    <text x="114" y="230" fill="#0F172A" font-family="Arial, sans-serif" font-size="30" font-weight="800">Ground Floor</text>
    <text x="596" y="230" fill="#B45309" font-family="Arial, sans-serif" font-size="16" font-weight="700">Scale approx 1:150</text>

    <rect x="124" y="370" width="632" height="82" rx="26" fill="#E3E8EE"/>
    <rect x="146" y="394" width="588" height="34" rx="16" fill="#EEF4F8"/>
    <rect x="160" y="407" width="560" height="8" rx="4" fill="#94A3B8"/>

    <rect x="130" y="276" width="170" height="78" rx="20" fill="#F5E6CE" stroke="#D7C29E" stroke-width="3"/>
    <text x="215" y="318" text-anchor="middle" fill="#7C5A26" font-family="Arial, sans-serif" font-size="20" font-weight="800">Main Entrance</text>

    <rect x="320" y="258" width="210" height="96" rx="22" fill="#F2DFC4" stroke="#D7C29E" stroke-width="3"/>
    <text x="425" y="305" text-anchor="middle" fill="#7C5A26" font-family="Arial, sans-serif" font-size="22" font-weight="800">Reception Lobby</text>
    <text x="425" y="330" text-anchor="middle" fill="#9A7B4F" font-family="Arial, sans-serif" font-size="14" font-weight="700">24 x 18 ft</text>

    <rect x="548" y="258" width="182" height="96" rx="22" fill="#F6EAD7" stroke="#D7C29E" stroke-width="3"/>
    <text x="639" y="305" text-anchor="middle" fill="#7C5A26" font-family="Arial, sans-serif" font-size="22" font-weight="800">Waiting Lounge</text>
    <text x="639" y="330" text-anchor="middle" fill="#9A7B4F" font-family="Arial, sans-serif" font-size="14" font-weight="700">20 x 18 ft</text>

    <rect x="146" y="476" width="214" height="96" rx="22" fill="#CFE8D6" stroke="#9EC7AB" stroke-width="3"/>
    <text x="253" y="524" text-anchor="middle" fill="#245B37" font-family="Arial, sans-serif" font-size="22" font-weight="800">Restaurant Dining</text>
    <text x="253" y="548" text-anchor="middle" fill="#45755B" font-family="Arial, sans-serif" font-size="14" font-weight="700">28 x 18 ft</text>

    <rect x="382" y="476" width="120" height="96" rx="22" fill="#FAD7C2" stroke="#EEB9A6" stroke-width="3"/>
    <text x="442" y="524" text-anchor="middle" fill="#8B3E22" font-family="Arial, sans-serif" font-size="22" font-weight="800">Kitchen</text>
    <text x="442" y="548" text-anchor="middle" fill="#9B5A45" font-family="Arial, sans-serif" font-size="14" font-weight="700">16 x 18 ft</text>

    <rect x="526" y="476" width="94" height="96" rx="22" fill="#E8D9F6" stroke="#CDB6E8" stroke-width="3"/>
    <text x="573" y="520" text-anchor="middle" fill="#5F358C" font-family="Arial, sans-serif" font-size="18" font-weight="800">Admin</text>
    <text x="573" y="542" text-anchor="middle" fill="#7E5EA0" font-family="Arial, sans-serif" font-size="14" font-weight="700">Office</text>
    <text x="573" y="560" text-anchor="middle" fill="#7E5EA0" font-family="Arial, sans-serif" font-size="12" font-weight="700">12 x 16 ft</text>

    <rect x="642" y="476" width="92" height="96" rx="22" fill="#DDEAF7" stroke="#B8D0E8" stroke-width="3"/>
    <text x="688" y="518" text-anchor="middle" fill="#28598B" font-family="Arial, sans-serif" font-size="18" font-weight="800">Public</text>
    <text x="688" y="540" text-anchor="middle" fill="#28598B" font-family="Arial, sans-serif" font-size="18" font-weight="800">Washrooms</text>
    <text x="688" y="560" text-anchor="middle" fill="#5D7EA2" font-family="Arial, sans-serif" font-size="12" font-weight="700">10 x 16 ft</text>

    <rect x="98" y="388" width="42" height="112" rx="16" fill="#DBEAFE" stroke="#93C5FD" stroke-width="3"/>
    <text x="119" y="436" text-anchor="middle" fill="#1D4ED8" font-family="Arial, sans-serif" font-size="14" font-weight="800">STAIR</text>
    <text x="119" y="454" text-anchor="middle" fill="#1E3A8A" font-family="Arial, sans-serif" font-size="14" font-weight="800">A</text>

    <rect x="665" y="388" width="74" height="112" rx="20" fill="#FFEDD5" stroke="#FDBA74" stroke-width="3"/>
    <text x="702" y="438" text-anchor="middle" fill="#C2410C" font-family="Arial, sans-serif" font-size="18" font-weight="800">ELEVATOR</text>
    <text x="702" y="462" text-anchor="middle" fill="#9A3412" font-family="Arial, sans-serif" font-size="14" font-weight="700">Core</text>

    <rect x="742" y="388" width="42" height="112" rx="16" fill="#DBEAFE" stroke="#93C5FD" stroke-width="3"/>
    <text x="763" y="436" text-anchor="middle" fill="#1D4ED8" font-family="Arial, sans-serif" font-size="14" font-weight="800">STAIR</text>
    <text x="763" y="454" text-anchor="middle" fill="#1E3A8A" font-family="Arial, sans-serif" font-size="14" font-weight="800">B</text>
  </g>

  <g>
    <rect x="840" y="180" width="720" height="420" rx="28" fill="#FBFCFF" stroke="#D5E0EA" stroke-width="4"/>
    <text x="874" y="230" fill="#0F172A" font-family="Arial, sans-serif" font-size="30" font-weight="800">First Floor</text>
    <text x="1382" y="230" fill="#2563EB" font-family="Arial, sans-serif" font-size="16" font-weight="700">12 guest rooms | 101–112</text>
    <rect x="902" y="372" width="596" height="82" rx="26" fill="#E3E8EE"/>
    <rect x="922" y="396" width="556" height="34" rx="16" fill="#EEF4F8"/>
    <rect x="936" y="409" width="528" height="8" rx="4" fill="#94A3B8"/>
    <rect x="858" y="384" width="38" height="112" rx="16" fill="#DBEAFE" stroke="#93C5FD" stroke-width="3"/>
    <rect x="1506" y="384" width="38" height="112" rx="16" fill="#DBEAFE" stroke="#93C5FD" stroke-width="3"/>
    <rect x="1205" y="382" width="92" height="118" rx="18" fill="#FFEDD5" stroke="#FDBA74" stroke-width="3"/>
    <text x="1251" y="432" text-anchor="middle" fill="#C2410C" font-family="Arial, sans-serif" font-size="16" font-weight="800">LIFT</text>
    <text x="1251" y="454" text-anchor="middle" fill="#9A3412" font-family="Arial, sans-serif" font-size="12" font-weight="700">Core</text>
    <g fill="#D8EAFE" stroke="#AAC6EA" stroke-width="3">
      <rect x="930" y="266" width="88" height="92" rx="16"/><rect x="1030" y="266" width="88" height="92" rx="16"/><rect x="1130" y="266" width="88" height="92" rx="16"/>
      <rect x="1284" y="266" width="88" height="92" rx="16"/><rect x="1384" y="266" width="88" height="92" rx="16"/><rect x="1484" y="266" width="52" height="92" rx="16"/>
      <rect x="930" y="472" width="88" height="92" rx="16"/><rect x="1030" y="472" width="88" height="92" rx="16"/><rect x="1130" y="472" width="88" height="92" rx="16"/>
      <rect x="1284" y="472" width="88" height="92" rx="16"/><rect x="1384" y="472" width="88" height="92" rx="16"/><rect x="1484" y="472" width="52" height="92" rx="16"/>
    </g>
    <g fill="#17457A" font-family="Arial, sans-serif" font-size="15" font-weight="800">
      <text x="974" y="311" text-anchor="middle">101</text><text x="1074" y="311" text-anchor="middle">102</text><text x="1174" y="311" text-anchor="middle">103</text>
      <text x="1328" y="311" text-anchor="middle">104</text><text x="1428" y="311" text-anchor="middle">105</text><text x="1510" y="311" text-anchor="middle">106</text>
      <text x="974" y="517" text-anchor="middle">107</text><text x="1074" y="517" text-anchor="middle">108</text><text x="1174" y="517" text-anchor="middle">109</text>
      <text x="1328" y="517" text-anchor="middle">110</text><text x="1428" y="517" text-anchor="middle">111</text><text x="1510" y="517" text-anchor="middle">112</text>
    </g>
    <text x="1186" y="583" fill="#52657A" font-family="Arial, sans-serif" font-size="14" font-weight="700">Typical room: 12 x 14 ft | bed + bathroom + wardrobe</text>
    <text x="1450" y="583" fill="#0F766E" font-family="Arial, sans-serif" font-size="14" font-weight="700">Housekeeping room near Stair B</text>
  </g>

  <g>
    <rect x="1600" y="180" width="720" height="420" rx="28" fill="#FBFCFF" stroke="#D5E0EA" stroke-width="4"/>
    <text x="1634" y="230" fill="#0F172A" font-family="Arial, sans-serif" font-size="30" font-weight="800">Second Floor</text>
    <text x="2090" y="230" fill="#16A34A" font-family="Arial, sans-serif" font-size="16" font-weight="700">12 guest rooms | 201–212</text>
    <rect x="1662" y="372" width="596" height="82" rx="26" fill="#E3E8EE"/>
    <rect x="1682" y="396" width="556" height="34" rx="16" fill="#EEF4F8"/>
    <rect x="1696" y="409" width="528" height="8" rx="4" fill="#94A3B8"/>
    <rect x="1618" y="384" width="38" height="112" rx="16" fill="#DBEAFE" stroke="#93C5FD" stroke-width="3"/>
    <rect x="2266" y="384" width="38" height="112" rx="16" fill="#DBEAFE" stroke="#93C5FD" stroke-width="3"/>
    <rect x="1965" y="382" width="92" height="118" rx="18" fill="#FFEDD5" stroke="#FDBA74" stroke-width="3"/>
    <text x="2011" y="432" text-anchor="middle" fill="#C2410C" font-family="Arial, sans-serif" font-size="16" font-weight="800">LIFT</text>
    <g fill="#D6F5E2" stroke="#A8DEC0" stroke-width="3">
      <rect x="1690" y="266" width="88" height="92" rx="16"/><rect x="1790" y="266" width="88" height="92" rx="16"/><rect x="1890" y="266" width="88" height="92" rx="16"/>
      <rect x="2044" y="266" width="88" height="92" rx="16"/><rect x="2144" y="266" width="88" height="92" rx="16"/><rect x="2244" y="266" width="52" height="92" rx="16"/>
      <rect x="1690" y="472" width="88" height="92" rx="16"/><rect x="1790" y="472" width="88" height="92" rx="16"/><rect x="1890" y="472" width="88" height="92" rx="16"/>
      <rect x="2044" y="472" width="88" height="92" rx="16"/><rect x="2144" y="472" width="88" height="92" rx="16"/><rect x="2244" y="472" width="52" height="92" rx="16"/>
    </g>
    <text x="2060" y="578" fill="#166534" font-family="Arial, sans-serif" font-size="15" font-weight="700">Linen room near lift | emergency exit marked at Stair A</text>
  </g>

  <g>
    <rect x="80" y="650" width="720" height="420" rx="28" fill="#FBFCFF" stroke="#D5E0EA" stroke-width="4"/>
    <text x="114" y="700" fill="#0F172A" font-family="Arial, sans-serif" font-size="30" font-weight="800">Third Floor</text>
    <text x="518" y="700" fill="#7C3AED" font-family="Arial, sans-serif" font-size="16" font-weight="700">Standard + Deluxe rooms | 301–312</text>
    <rect x="142" y="842" width="596" height="82" rx="26" fill="#E3E8EE"/>
    <rect x="162" y="866" width="556" height="34" rx="16" fill="#EEF4F8"/>
    <rect x="176" y="879" width="528" height="8" rx="4" fill="#94A3B8"/>
    <rect x="98" y="854" width="38" height="112" rx="16" fill="#DBEAFE" stroke="#93C5FD" stroke-width="3"/>
    <rect x="746" y="854" width="38" height="112" rx="16" fill="#DBEAFE" stroke="#93C5FD" stroke-width="3"/>
    <rect x="445" y="852" width="92" height="118" rx="18" fill="#FFEDD5" stroke="#FDBA74" stroke-width="3"/>
    <g fill="#F4D8FA" stroke="#E0B5EC" stroke-width="3">
      <rect x="170" y="736" width="88" height="92" rx="16"/><rect x="270" y="736" width="88" height="92" rx="16"/><rect x="370" y="724" width="116" height="104" rx="18"/>
      <rect x="506" y="724" width="116" height="104" rx="18"/><rect x="642" y="736" width="88" height="92" rx="16"/>
      <rect x="170" y="942" width="88" height="92" rx="16"/><rect x="270" y="942" width="88" height="92" rx="16"/><rect x="370" y="930" width="116" height="104" rx="18"/>
      <rect x="506" y="930" width="116" height="104" rx="18"/><rect x="642" y="942" width="88" height="92" rx="16"/>
    </g>
    <text x="225" y="1080" fill="#6B21A8" font-family="Arial, sans-serif" font-size="15" font-weight="700">Deluxe rooms highlighted | service room near Stair B</text>
  </g>

  <g>
    <rect x="840" y="650" width="720" height="420" rx="28" fill="#FBFCFF" stroke="#D5E0EA" stroke-width="4"/>
    <text x="874" y="700" fill="#0F172A" font-family="Arial, sans-serif" font-size="30" font-weight="800">Fourth Floor</text>
    <text x="1284" y="700" fill="#BE185D" font-family="Arial, sans-serif" font-size="16" font-weight="700">Premium rooms + suites | 401–410</text>
    <rect x="930" y="736" width="118" height="124" rx="18" fill="#FCE7F3" stroke="#F3B7D1" stroke-width="3"/>
    <rect x="1066" y="736" width="118" height="124" rx="18" fill="#FCE7F3" stroke="#F3B7D1" stroke-width="3"/>
    <rect x="1204" y="724" width="154" height="146" rx="20" fill="#F7D8E8" stroke="#E8A7C6" stroke-width="3"/>
    <rect x="1382" y="724" width="126" height="146" rx="20" fill="#F7D8E8" stroke="#E8A7C6" stroke-width="3"/>
    <rect x="930" y="894" width="118" height="124" rx="18" fill="#FCE7F3" stroke="#F3B7D1" stroke-width="3"/>
    <rect x="1066" y="894" width="118" height="124" rx="18" fill="#FCE7F3" stroke="#F3B7D1" stroke-width="3"/>
    <rect x="1204" y="884" width="154" height="146" rx="20" fill="#F7D8E8" stroke="#E8A7C6" stroke-width="3"/>
    <rect x="1382" y="884" width="126" height="146" rx="20" fill="#F7D8E8" stroke="#E8A7C6" stroke-width="3"/>
    <rect x="860" y="842" width="52" height="112" rx="16" fill="#DBEAFE" stroke="#93C5FD" stroke-width="3"/>
    <rect x="1488" y="842" width="52" height="112" rx="16" fill="#DBEAFE" stroke="#93C5FD" stroke-width="3"/>
    <rect x="1166" y="836" width="136" height="124" rx="24" fill="#FFEDD5" stroke="#FDBA74" stroke-width="3"/>
    <text x="1196" y="1050" fill="#9D174D" font-family="Arial, sans-serif" font-size="15" font-weight="700">Suites include bedroom + living area | dimensions 18 x 24 ft approx</text>
  </g>

  <g>
    <rect x="1600" y="650" width="720" height="420" rx="28" fill="#FFFDF7" stroke="#D5E0EA" stroke-width="4"/>
    <text x="1634" y="700" fill="#0F172A" font-family="Arial, sans-serif" font-size="30" font-weight="800">Fifth Floor (Top Floor)</text>
    <text x="2088" y="700" fill="#EA580C" font-family="Arial, sans-serif" font-size="16" font-weight="700">Rooftop amenities</text>
    <rect x="1650" y="748" width="230" height="138" rx="26" fill="#BAE6FD" stroke="#7DD3FC" stroke-width="4"/>
    <text x="1765" y="820" text-anchor="middle" fill="#0369A1" font-family="Arial, sans-serif" font-size="24" font-weight="800">Swimming Pool</text>
    <text x="1765" y="850" text-anchor="middle" fill="#0C4A6E" font-family="Arial, sans-serif" font-size="14" font-weight="700">28 x 14 ft</text>
    <rect x="1910" y="748" width="130" height="138" rx="24" fill="#DCFCE7" stroke="#86EFAC" stroke-width="4"/>
    <text x="1975" y="818" text-anchor="middle" fill="#166534" font-family="Arial, sans-serif" font-size="24" font-weight="800">Gym</text>
    <text x="1975" y="848" text-anchor="middle" fill="#166534" font-family="Arial, sans-serif" font-size="14" font-weight="700">16 x 18 ft</text>
    <rect x="2060" y="748" width="112" height="138" rx="24" fill="#FCE7F3" stroke="#F9A8D4" stroke-width="4"/>
    <text x="2116" y="818" text-anchor="middle" fill="#9D174D" font-family="Arial, sans-serif" font-size="22" font-weight="800">Spa</text>
    <text x="2116" y="848" text-anchor="middle" fill="#9D174D" font-family="Arial, sans-serif" font-size="14" font-weight="700">12 x 18 ft</text>
    <rect x="2192" y="748" width="92" height="138" rx="24" fill="#FCE7F3" stroke="#F9A8D4" stroke-width="4"/>
    <text x="2238" y="818" text-anchor="middle" fill="#9D174D" font-family="Arial, sans-serif" font-size="20" font-weight="800">Spa 2</text>
    <text x="2238" y="848" text-anchor="middle" fill="#9D174D" font-family="Arial, sans-serif" font-size="14" font-weight="700">10 x 18 ft</text>
    <rect x="1650" y="918" width="364" height="110" rx="26" fill="#FDE68A" stroke="#FBBF24" stroke-width="4"/>
    <text x="1832" y="976" text-anchor="middle" fill="#92400E" font-family="Arial, sans-serif" font-size="26" font-weight="800">Rooftop Restaurant</text>
    <text x="1832" y="1002" text-anchor="middle" fill="#92400E" font-family="Arial, sans-serif" font-size="14" font-weight="700">32 x 18 ft dining hall</text>
    <rect x="2036" y="918" width="118" height="110" rx="26" fill="#FED7AA" stroke="#FB923C" stroke-width="4"/>
    <text x="2095" y="978" text-anchor="middle" fill="#9A3412" font-family="Arial, sans-serif" font-size="24" font-weight="800">Bar</text>
    <text x="2095" y="1000" text-anchor="middle" fill="#9A3412" font-family="Arial, sans-serif" font-size="14" font-weight="700">18 x 14 ft</text>
    <rect x="2178" y="918" width="110" height="110" rx="26" fill="#D9F99D" stroke="#A3E635" stroke-width="4"/>
    <text x="2233" y="976" text-anchor="middle" fill="#3F6212" font-family="Arial, sans-serif" font-size="20" font-weight="800">Terrace</text>
    <text x="2233" y="1000" text-anchor="middle" fill="#3F6212" font-family="Arial, sans-serif" font-size="14" font-weight="700">Seating</text>
  </g>

  <rect x="80" y="1108" width="2240" height="424" rx="28" fill="#F9FBFE" stroke="#D5E0EA" stroke-width="4"/>
  <text x="116" y="1160" fill="#0F172A" font-family="Arial, sans-serif" font-size="28" font-weight="800">Legend and Notes</text>
  <g font-family="Arial, sans-serif" font-size="18" font-weight="700">
    <rect x="120" y="1196" width="42" height="22" rx="6" fill="#F2DFC4"/><text x="176" y="1214" fill="#7C5A26">Lobby / reception zones</text>
    <rect x="120" y="1238" width="42" height="22" rx="6" fill="#D8EAFE"/><text x="176" y="1256" fill="#17457A">Standard guest rooms</text>
    <rect x="120" y="1280" width="42" height="22" rx="6" fill="#D6F5E2"/><text x="176" y="1298" fill="#166534">Second floor guest rooms / service</text>
    <rect x="120" y="1322" width="42" height="22" rx="6" fill="#F4D8FA"/><text x="176" y="1340" fill="#6B21A8">Third floor deluxe mix</text>
    <rect x="120" y="1364" width="42" height="22" rx="6" fill="#FCE7F3"/><text x="176" y="1382" fill="#9D174D">Premium and suite layouts</text>
    <rect x="120" y="1406" width="42" height="22" rx="6" fill="#BAE6FD"/><text x="176" y="1424" fill="#0369A1">Pool / water amenity</text>
    <rect x="520" y="1196" width="42" height="22" rx="6" fill="#FFEDD5"/><text x="576" y="1214" fill="#C2410C">Elevator core</text>
    <rect x="520" y="1238" width="42" height="22" rx="6" fill="#DBEAFE"/><text x="576" y="1256" fill="#1D4ED8">Stair core / emergency exit</text>
    <rect x="520" y="1280" width="42" height="22" rx="6" fill="#FDE68A"/><text x="576" y="1298" fill="#92400E">Dining / rooftop restaurant</text>
    <rect x="520" y="1322" width="42" height="22" rx="6" fill="#DCFCE7"/><text x="576" y="1340" fill="#166534">Gym / terrace / open areas</text>
    <rect x="520" y="1364" width="42" height="22" rx="6" fill="#FAD7C2"/><text x="576" y="1382" fill="#8B3E22">Kitchen / back of house</text>
  </g>
  <text x="1200" y="1220" text-anchor="middle" fill="#52657A" font-family="Arial, sans-serif" font-size="18" font-weight="700">Furniture and bathroom icons simplified for presentation use. Dimensions shown are approximate in feet.</text>
  <text x="1200" y="1260" text-anchor="middle" fill="#52657A" font-family="Arial, sans-serif" font-size="18" font-weight="700">Use this sheet as an architectural reference board in the app, admin dashboard, investor deck, or Figma import workflow.</text>
</svg>
